# xmcd CD database file
#
# Track frame offsets:
#	150
#	25927
#	51110
#	64515
#	89230
#	111225
#	135217
#	159845
#	181910
#	201625
#	230720
#	250500
#	273385
#	296525
#
# Disc length: 4211 seconds
#
# Revision: 0
# Processed by: cddbd v1.4PL0 Copyright (c) Steve Scherf et al.
# Submitted via: CDex 1.50Beta7
#
DISCID=c510710e
DTITLE=Oscar D'Leon - Exitos Vol. 2
DYEAR=1996
DGENRE=Salsa
TTITLE0=Se Solicita Un Novio
TTITLE1=Se Necisita Rumbero
TTITLE2=El Panquelero
TTITLE3=Enamorado
TTITLE4=El Derecho De Nacer
TTITLE5=Calculadora
TTITLE6=Rico Melao
TTITLE7=Mi Novia
TTITLE8=De Ti Enamorado
TTITLE9=Yo Quisiera Saber
TTITLE10=Te Quiero Tanto
TTITLE11=Hechicera
TTITLE12=Mira Pa' Ahi
TTITLE13=Mi Delito
EXTD=YEAR: 1996
EXTT0=
EXTT1=
EXTT2=
EXTT3=
EXTT4=
EXTT5=
EXTT6=
EXTT7=
EXTT8=
EXTT9=
EXTT10=
EXTT11=
EXTT12=
EXTT13=
PLAYORDER=
